<?xml version="1.0" encoding="UTF-8"?><svg id="Layer_2" xmlns="http://www.w3.org/2000/svg" xmlns:xlink="http://www.w3.org/1999/xlink" viewBox="0 0 816 416"><defs><style>.cls-1{fill:url(#linear-gradient-2);}.cls-2{filter:url(#drop-shadow-7);}.cls-3{fill:#f4f4f4;}.cls-4{fill:#fff;}.cls-5{fill:#002d57;}.cls-6{fill:#63b3fa;}.cls-7{filter:url(#drop-shadow-4);}.cls-8{fill:#c6a56f;}.cls-9{filter:url(#drop-shadow-8);}.cls-10{fill:#84524d;}.cls-11{filter:url(#drop-shadow-3);}.cls-12{filter:url(#drop-shadow-1);}.cls-13{clip-path:url(#clippath-1);}.cls-14{filter:url(#drop-shadow-6);}.cls-15{fill:#fff7f0;}.cls-16{fill:#335779;}.cls-17{filter:url(#drop-shadow-5);}.cls-18{fill:#332d44;}.cls-19{filter:url(#drop-shadow-2);}.cls-20{fill:#e6d0be;}.cls-21{fill:#99f4cb;}.cls-22{fill:#003c74;}.cls-23{fill:#00e37d;}.cls-24{clip-path:url(#clippath);}.cls-25{fill:none;}.cls-26{fill:#50bf73;}.cls-27{filter:url(#drop-shadow-9);}.cls-28{fill:#1b4026;}.cls-29{fill:#9a9a9a;}.cls-30{fill:#f2e6dc;}.cls-31,.cls-32{fill:#00aa5e;}.cls-33{fill:url(#linear-gradient);}.cls-34{fill:#7f7f7f;}.cls-35{fill:#d9d9d9;}.cls-36{fill:#c6c6c6;}.cls-32{filter:url(#drop-shadow-10);}.cls-37{fill:#363e44;}</style><clipPath id="clippath"><rect class="cls-25" width="816" height="416"/></clipPath><linearGradient id="linear-gradient" x1="3.07" y1="1.27" x2="824.33" y2="420.55" gradientUnits="userSpaceOnUse"><stop offset=".01" stop-color="#00e37d"/><stop offset="1" stop-color="#00aa5e"/></linearGradient><filter id="drop-shadow-1" filterUnits="userSpaceOnUse"><feOffset dx="0" dy="0"/><feGaussianBlur result="blur" stdDeviation="6.37"/><feFlood flood-color="#000" flood-opacity=".2"/><feComposite in2="blur" operator="in"/><feComposite in="SourceGraphic"/></filter><filter id="drop-shadow-2" filterUnits="userSpaceOnUse"><feOffset dx="0" dy="0"/><feGaussianBlur result="blur-2" stdDeviation="6.37"/><feFlood flood-color="#000" flood-opacity=".2"/><feComposite in2="blur-2" operator="in"/><feComposite in="SourceGraphic"/></filter><filter id="drop-shadow-3" filterUnits="userSpaceOnUse"><feOffset dx="0" dy="0"/><feGaussianBlur result="blur-3" stdDeviation="6.37"/><feFlood flood-color="#000" flood-opacity=".2"/><feComposite in2="blur-3" operator="in"/><feComposite in="SourceGraphic"/></filter><filter id="drop-shadow-4" filterUnits="userSpaceOnUse"><feOffset dx="0" dy="0"/><feGaussianBlur result="blur-4" stdDeviation="6.37"/><feFlood flood-color="#000" flood-opacity=".2"/><feComposite in2="blur-4" operator="in"/><feComposite in="SourceGraphic"/></filter><filter id="drop-shadow-5" filterUnits="userSpaceOnUse"><feOffset dx="0" dy="0"/><feGaussianBlur result="blur-5" stdDeviation="6.37"/><feFlood flood-color="#000" flood-opacity=".2"/><feComposite in2="blur-5" operator="in"/><feComposite in="SourceGraphic"/></filter><filter id="drop-shadow-6" filterUnits="userSpaceOnUse"><feOffset dx="0" dy="0"/><feGaussianBlur result="blur-6" stdDeviation="6.37"/><feFlood flood-color="#000" flood-opacity=".2"/><feComposite in2="blur-6" operator="in"/><feComposite in="SourceGraphic"/></filter><filter id="drop-shadow-7" filterUnits="userSpaceOnUse"><feOffset dx="0" dy="0"/><feGaussianBlur result="blur-7" stdDeviation="6.37"/><feFlood flood-color="#000" flood-opacity=".2"/><feComposite in2="blur-7" operator="in"/><feComposite in="SourceGraphic"/></filter><filter id="drop-shadow-8" filterUnits="userSpaceOnUse"><feOffset dx="0" dy="0"/><feGaussianBlur result="blur-8" stdDeviation="6.37"/><feFlood flood-color="#000" flood-opacity=".2"/><feComposite in2="blur-8" operator="in"/><feComposite in="SourceGraphic"/></filter><linearGradient id="linear-gradient-2" x1="225.59" y1="164.56" x2="967.16" y2="164.56" gradientTransform="translate(230.6 -334.39) rotate(38.33)" gradientUnits="userSpaceOnUse"><stop offset=".01" stop-color="#00e37d" stop-opacity=".7"/><stop offset="1" stop-color="#00e37d"/></linearGradient><filter id="drop-shadow-9" filterUnits="userSpaceOnUse"><feOffset dx="0" dy="0"/><feGaussianBlur result="blur-9" stdDeviation="6.37"/><feFlood flood-color="#000" flood-opacity=".2"/><feComposite in2="blur-9" operator="in"/><feComposite in="SourceGraphic"/></filter><clipPath id="clippath-1"><path class="cls-5" d="m537.95,289.15l-22.46,16.55c-2.15,1.58-5.15-.11-4.92-2.76l2.47-27.79c.04-.44.17-.86.38-1.24l106.75-189.87c.84-1.49,2.72-2.02,4.21-1.18l19.99,11.24c1.49.84,2.02,2.72,1.18,4.21l-106.75,189.87c-.21.38-.51.71-.86.97Z"/></clipPath><filter id="drop-shadow-10" filterUnits="userSpaceOnUse"><feOffset dx="0" dy="0"/><feGaussianBlur result="blur-10" stdDeviation="7.64"/><feFlood flood-color="#000" flood-opacity=".4"/><feComposite in2="blur-10" operator="in"/><feComposite in="SourceGraphic"/></filter></defs><g id="Layer_1-2"><g class="cls-24"><rect class="cls-33" width="816" height="416"/><g class="cls-12"><rect class="cls-36" x="281" y="-212.66" width="171.78" height="281.78" rx="9.56" ry="9.56"/><path class="cls-34" d="m293.05,6.59c0-2.91,2.36-5.27,5.27-5.27h2.51c2.91,0,5.27,2.36,5.27,5.27s-2.36,5.27-5.27,5.27h-2.51c-2.91,0-5.27-2.36-5.27-5.27Z"/><path class="cls-34" d="m310.63,6.59c0-2.91,2.36-5.27,5.27-5.27h27.63c2.91,0,5.27,2.36,5.27,5.27s-2.36,5.27-5.27,5.27h-27.63c-2.91,0-5.27-2.36-5.27-5.27Z"/><path class="cls-34" d="m293.05,21.15c0-2.91,2.36-5.27,5.27-5.27h2.51c2.91,0,5.27,2.36,5.27,5.27s-2.36,5.27-5.27,5.27h-2.51c-2.91,0-5.27-2.36-5.27-5.27Z"/><path class="cls-34" d="m310.63,21.15c0-2.91,2.36-5.27,5.27-5.27h27.63c2.91,0,5.27,2.36,5.27,5.27s-2.36,5.27-5.27,5.27h-27.63c-2.91,0-5.27-2.36-5.27-5.27Z"/><path class="cls-34" d="m293.05,30.45h147.67v.5h-147.67v-.5Z"/><path class="cls-34" d="m293.05,39.49c0-2.5,2.02-4.52,4.52-4.52h29.13c2.5,0,4.52,2.02,4.52,4.52s-2.02,4.52-4.52,4.52h-29.13c-2.5,0-4.52-2.02-4.52-4.52Z"/><path class="cls-36" d="m281,50.03h85.89v19.09h-79.86c-3.33,0-6.03-2.7-6.03-6.03v-13.06Z"/><path class="cls-34" d="m297.57,59.58c0-2.5,2.02-4.52,4.52-4.52h43.7c2.5,0,4.52,2.02,4.52,4.52s-2.02,4.52-4.52,4.52h-43.7c-2.5,0-4.52-2.02-4.52-4.52Z"/><path class="cls-36" d="m366.89,50.03h85.89v13.06c0,3.33-2.7,6.03-6.03,6.03h-79.86v-19.09Z"/><path class="cls-34" d="m383.46,59.58c0-2.5,2.02-4.52,4.52-4.52h43.7c2.5,0,4.52,2.02,4.52,4.52s-2.02,4.52-4.52,4.52h-43.7c-2.5,0-4.52-2.02-4.52-4.52Z"/></g><g class="cls-19"><rect class="cls-36" x="91.13" y="-212.66" width="171.78" height="281.78" rx="9.56" ry="9.56"/><path class="cls-34" d="m103.19,6.59c0-2.91,2.36-5.27,5.27-5.27h2.51c2.91,0,5.27,2.36,5.27,5.27s-2.36,5.27-5.27,5.27h-2.51c-2.91,0-5.27-2.36-5.27-5.27Z"/><path class="cls-34" d="m120.77,6.59c0-2.91,2.36-5.27,5.27-5.27h27.63c2.91,0,5.27,2.36,5.27,5.27s-2.36,5.27-5.27,5.27h-27.63c-2.91,0-5.27-2.36-5.27-5.27Z"/><path class="cls-34" d="m103.19,21.15c0-2.91,2.36-5.27,5.27-5.27h2.51c2.91,0,5.27,2.36,5.27,5.27s-2.36,5.27-5.27,5.27h-2.51c-2.91,0-5.27-2.36-5.27-5.27Z"/><path class="cls-34" d="m120.77,21.15c0-2.91,2.36-5.27,5.27-5.27h27.63c2.91,0,5.27,2.36,5.27,5.27s-2.36,5.27-5.27,5.27h-27.63c-2.91,0-5.27-2.36-5.27-5.27Z"/><path class="cls-34" d="m103.19,30.45h147.67v.5H103.19v-.5Z"/><path class="cls-34" d="m103.19,39.49c0-2.5,2.02-4.52,4.52-4.52h29.13c2.5,0,4.52,2.02,4.52,4.52s-2.02,4.52-4.52,4.52h-29.13c-2.5,0-4.52-2.02-4.52-4.52Z"/><path class="cls-36" d="m91.13,50.03h85.89v19.09h-79.86c-3.33,0-6.03-2.7-6.03-6.03v-13.06Z"/><path class="cls-34" d="m107.71,59.58c0-2.5,2.02-4.52,4.52-4.52h43.7c2.5,0,4.52,2.02,4.52,4.52s-2.02,4.52-4.52,4.52h-43.7c-2.5,0-4.52-2.02-4.52-4.52Z"/><path class="cls-36" d="m177.02,50.03h85.89v13.06c0,3.33-2.7,6.03-6.03,6.03h-79.86v-19.09Z"/><path class="cls-34" d="m193.6,59.58c0-2.5,2.02-4.52,4.52-4.52h43.7c2.5,0,4.52,2.02,4.52,4.52s-2.02,4.52-4.52,4.52h-43.7c-2.5,0-4.52-2.02-4.52-4.52Z"/></g><g class="cls-11"><rect class="cls-36" x="-95.1" y="-212.66" width="171.78" height="281.78" rx="9.56" ry="9.56"/><path class="cls-34" d="m-83.05,30.45H64.62v.5H-83.05v-.5Z"/><path class="cls-36" d="m-9.21,50.03h85.89v13.06c0,3.33-2.7,6.03-6.03,6.03H-9.21v-19.09Z"/><path class="cls-34" d="m7.36,59.58c0-2.5,2.02-4.52,4.52-4.52h43.7c2.5,0,4.52,2.02,4.52,4.52s-2.02,4.52-4.52,4.52H11.88c-2.5,0-4.52-2.02-4.52-4.52Z"/></g><g class="cls-7"><rect class="cls-36" x="281" y="388.32" width="171.78" height="281.78" rx="9.56" ry="9.56"/><rect class="cls-29" x="293.05" y="410.42" width="147.67" height="147.67" rx="9.56" ry="9.56"/><path class="cls-34" d="m293.05,399.12c0-2.91,2.36-5.27,5.27-5.27h10.55c2.91,0,5.27,2.36,5.27,5.27s-2.36,5.27-5.27,5.27h-10.55c-2.91,0-5.27-2.36-5.27-5.27Z"/><path class="cls-34" d="m320.18,399.12c0-2.91,2.36-5.27,5.27-5.27h10.55c2.91,0,5.27,2.36,5.27,5.27s-2.36,5.27-5.27,5.27h-10.55c-2.91,0-5.27-2.36-5.27-5.27Z"/></g><g class="cls-17"><rect class="cls-36" x="91.13" y="388.32" width="171.78" height="281.78" rx="9.56" ry="9.56"/><rect class="cls-29" x="103.19" y="410.42" width="147.67" height="147.67" rx="9.56" ry="9.56"/><path class="cls-34" d="m103.19,399.12c0-2.91,2.36-5.27,5.27-5.27h10.55c2.91,0,5.27,2.36,5.27,5.27s-2.36,5.27-5.27,5.27h-10.55c-2.91,0-5.27-2.36-5.27-5.27Z"/><path class="cls-34" d="m130.31,399.12c0-2.91,2.36-5.27,5.27-5.27h10.55c2.91,0,5.27,2.36,5.27,5.27s-2.36,5.27-5.27,5.27h-10.55c-2.91,0-5.27-2.36-5.27-5.27Z"/></g><g class="cls-14"><rect class="cls-36" x="-95.1" y="388.32" width="171.78" height="281.78" rx="9.56" ry="9.56"/><rect class="cls-29" x="-83.05" y="410.42" width="147.67" height="147.67" rx="9.56" ry="9.56"/></g><g class="cls-2"><rect class="cls-36" x="281" y="87.83" width="171.78" height="281.78" rx="9.56" ry="9.56"/><rect class="cls-29" x="293.05" y="109.93" width="147.67" height="147.67" rx="9.56" ry="9.56"/><path class="cls-34" d="m293.05,98.63c0-2.91,2.36-5.27,5.27-5.27h10.55c2.91,0,5.27,2.36,5.27,5.27s-2.36,5.27-5.27,5.27h-10.55c-2.91,0-5.27-2.36-5.27-5.27Z"/><path class="cls-34" d="m320.18,98.63c0-2.91,2.36-5.27,5.27-5.27h10.55c2.91,0,5.27,2.36,5.27,5.27s-2.36,5.27-5.27,5.27h-10.55c-2.91,0-5.27-2.36-5.27-5.27Z"/><path class="cls-34" d="m293.05,272.42c0-4.85,3.94-8.79,8.79-8.79h130.09c4.85,0,8.79,3.93,8.79,8.79s-3.94,8.79-8.79,8.79h-130.09c-4.85,0-8.79-3.94-8.79-8.79Z"/><path class="cls-34" d="m293.05,292.51c0-2.91,2.36-5.27,5.27-5.27h2.51c2.91,0,5.27,2.36,5.27,5.27s-2.36,5.27-5.27,5.27h-2.51c-2.91,0-5.27-2.36-5.27-5.27Z"/><path class="cls-34" d="m310.63,292.51c0-2.91,2.36-5.27,5.27-5.27h42.69c2.91,0,5.27,2.36,5.27,5.27s-2.36,5.27-5.27,5.27h-42.69c-2.91,0-5.27-2.36-5.27-5.27Z"/><path class="cls-34" d="m293.05,307.08c0-2.91,2.36-5.27,5.27-5.27h2.51c2.91,0,5.27,2.36,5.27,5.27s-2.36,5.27-5.27,5.27h-2.51c-2.91,0-5.27-2.36-5.27-5.27Z"/><path class="cls-34" d="m310.63,307.08c0-2.91,2.36-5.27,5.27-5.27h27.63c2.91,0,5.27,2.36,5.27,5.27s-2.36,5.27-5.27,5.27h-27.63c-2.91,0-5.27-2.36-5.27-5.27Z"/><path class="cls-34" d="m293.05,321.64c0-2.91,2.36-5.27,5.27-5.27h2.51c2.91,0,5.27,2.36,5.27,5.27s-2.36,5.27-5.27,5.27h-2.51c-2.91,0-5.27-2.36-5.27-5.27Z"/><path class="cls-34" d="m310.63,321.64c0-2.91,2.36-5.27,5.27-5.27h27.63c2.91,0,5.27,2.36,5.27,5.27s-2.36,5.27-5.27,5.27h-27.63c-2.91,0-5.27-2.36-5.27-5.27Z"/><path class="cls-34" d="m293.05,330.93h147.67v.5h-147.67v-.5Z"/><path class="cls-34" d="m293.05,339.98c0-2.5,2.02-4.52,4.52-4.52h29.13c2.5,0,4.52,2.02,4.52,4.52s-2.02,4.52-4.52,4.52h-29.13c-2.5,0-4.52-2.02-4.52-4.52Z"/><path class="cls-36" d="m281,350.52h85.89v19.09h-79.86c-3.33,0-6.03-2.7-6.03-6.03v-13.06Z"/><path class="cls-34" d="m297.57,360.07c0-2.5,2.02-4.52,4.52-4.52h43.7c2.5,0,4.52,2.02,4.52,4.52s-2.02,4.52-4.52,4.52h-43.7c-2.5,0-4.52-2.02-4.52-4.52Z"/><path class="cls-36" d="m366.89,350.52h85.89v13.06c0,3.33-2.7,6.03-6.03,6.03h-79.86v-19.09Z"/><path class="cls-34" d="m383.46,360.07c0-2.5,2.02-4.52,4.52-4.52h43.7c2.5,0,4.52,2.02,4.52,4.52s-2.02,4.52-4.52,4.52h-43.7c-2.5,0-4.52-2.02-4.52-4.52Z"/></g><g class="cls-9"><rect class="cls-36" x="-95.1" y="87.83" width="171.78" height="281.78" rx="9.56" ry="9.56"/><rect class="cls-29" x="-83.05" y="109.93" width="147.67" height="147.67" rx="9.56" ry="9.56"/><path class="cls-34" d="m-83.05,272.42c0-4.85,3.94-8.79,8.79-8.79H55.83c4.85,0,8.79,3.93,8.79,8.79s-3.94,8.79-8.79,8.79H-74.26c-4.85,0-8.79-3.94-8.79-8.79Z"/><path class="cls-34" d="m-83.05,330.93H64.62v.5H-83.05v-.5Z"/><path class="cls-36" d="m-9.21,350.52h85.89v13.06c0,3.33-2.7,6.03-6.03,6.03H-9.21v-19.09Z"/><path class="cls-34" d="m7.36,360.07c0-2.5,2.02-4.52,4.52-4.52h43.7c2.5,0,4.52,2.02,4.52,4.52s-2.02,4.52-4.52,4.52H11.88c-2.5,0-4.52-2.02-4.52-4.52Z"/></g><g id="Digital_reading"><ellipse class="cls-1" cx="596.37" cy="164.56" rx="435.09" ry="233.43" transform="translate(26.49 405.33) rotate(-38.33)"/><path class="cls-21" d="m545.69,304.39h42.05c-2.73,0-4.94-4.77-4.94-10.76h0c0-5.99,2.21-10.76,4.94-10.76h-42.05c-2.73,0-4.94,4.77-4.94,10.76h0c0,5.99,2.21,10.76,4.94,10.76Z"/><path class="cls-28" d="m477.18,304.78h85.77c-5.56,0-10.07-4.91-10.07-11.14h0c0-6.23,4.51-11.14,10.07-11.14h-85.77c-5.56,0-10.07,4.91-10.07,11.14h0c0,6.23,4.51,11.14,10.07,11.14Z"/><path class="cls-10" d="m562.95,282.7h25.61c.1,0,.17.08.17.17s-.08.17-.17.17h-25.61c-5.64,0-9.9,4.55-9.9,10.58,0,6.03,4.26,10.58,9.9,10.58h25.61c.1,0,.17.08.17.17s-.08.17-.17.17h-25.61c-2.77,0-5.34-1.1-7.25-3.1-1.93-2.03-3-4.81-3-7.84s1.06-5.81,3-7.84c1.91-2,4.48-3.1,7.25-3.1Z"/><path class="cls-20" d="m562.05,301.53h22.29c.1,0,.17.08.17.17s-.08.17-.17.17h-22.29c-.1,0-.17-.08-.17-.17,0-.1.08-.17.17-.17Z"/><path class="cls-20" d="m560.9,296.92h22.29c.1,0,.17.08.17.17s-.08.17-.17.17h-22.29c-.1,0-.17-.08-.17-.17,0-.1.08-.17.17-.17Z"/><path class="cls-20" d="m556.67,294.23h26.13c.1,0,.17.08.17.17s-.08.17-.17.17h-26.13c-.1,0-.17-.08-.17-.17s.08-.17.17-.17Z"/><path class="cls-20" d="m558.98,288.85h24.21c.1,0,.17.08.17.17s-.08.17-.17.17h-24.21c-.1,0-.17-.08-.17-.17s.08-.17.17-.17Z"/><rect class="cls-16" x="474.83" y="287.49" width="23.06" height="12.68" transform="translate(972.71 587.65) rotate(180)"/><rect class="cls-16" x="502.11" y="287.49" width="41.5" height="12.68" transform="translate(1045.72 587.65) rotate(180)"/><path class="cls-21" d="m550.75,356.79h42.05c-2.73,0-4.94-3.27-4.94-7.11h0c0-3.83,2.21-7.11,4.94-7.11h-42.05c-2.73,0-4.94,3.27-4.94,7.11h0c0,3.83,2.21,7.11,4.94,7.11Z"/><path class="cls-26" d="m482.24,357.16h85.77c-5.56,0-8.12-3.29-8.12-7.49h0c0-4.2,2.56-7.49,8.12-7.49h-85.77c-5.56,0-8.12,3.29-8.12,7.49h0c0,4.2,2.56,7.49,8.12,7.49Z"/><path class="cls-10" d="m568.02,342.4h25.61c.1,0,.17.08.17.17s-.08.17-.17.17h-25.61c-4.98,0-7.95,2.59-7.95,6.93,0,4.34,2.97,6.93,7.95,6.93h25.61c.1,0,.17.08.17.17,0,.1-.08.17-.17.17h-25.61c-5.2,0-8.3-2.72-8.3-7.28s3.1-7.28,8.3-7.28Z"/><path class="cls-20" d="m567.12,354.69h22.29c.1,0,.17.08.17.17s-.08.17-.17.17h-22.29c-.1,0-.17-.08-.17-.17s.08-.17.17-.17Z"/><path class="cls-20" d="m565.96,351.62h22.29c.1,0,.17.08.17.17s-.08.17-.17.17h-22.29c-.1,0-.17-.08-.17-.17s.08-.17.17-.17Z"/><path class="cls-20" d="m561.74,350.08h26.13c.1,0,.17.08.17.17s-.08.17-.17.17h-26.13c-.1,0-.17-.08-.17-.17s.08-.17.17-.17Z"/><path class="cls-20" d="m564.04,346.24h24.21c.1,0,.17.08.17.17,0,.1-.08.17-.17.17h-24.21c-.1,0-.17-.08-.17-.17,0-.1.08-.17.17-.17Z"/><path class="cls-21" d="m510.78,318.82h-44.36c2.88,0,5.21,5.15,5.21,11.47h0c0,6.32-2.33,11.47-5.21,11.47h44.36c2.88,0,5.21-5.15,5.21-11.47h0c0-6.32-2.33-11.47-5.21-11.47Z"/><path class="cls-5" d="m583.05,318.39h-90.48c5.87,0,10.63,5.33,10.63,11.9h0c0,6.57-4.76,11.9-10.63,11.9h90.48c5.87,0,10.63-5.33,10.63-11.9h0c0-6.57-4.76-11.9-10.63-11.9Z"/><path class="cls-10" d="m465.52,318.62h27.04c6.07,0,10.82,5.12,10.82,11.66,0,6.54-4.75,11.66-10.82,11.66h-27.04c-.11,0-.2-.09-.2-.2,0-.11.09-.2.2-.2h27.04c5.85,0,10.43-4.95,10.43-11.27s-4.58-11.27-10.43-11.27h-27.04c-.11,0-.2-.09-.2-.2s.09-.2.2-.2Z"/><path class="cls-20" d="m469.85,321.65h23.8c.11,0,.2.09.2.2,0,.11-.09.2-.2.2h-23.8c-.11,0-.2-.09-.2-.2,0-.11.09-.2.2-.2Z"/><path class="cls-20" d="m471.15,326.41h23.8c.11,0,.2.09.2.2,0,.11-.09.2-.2.2h-23.8c-.11,0-.2-.09-.2-.2,0-.11.09-.2.2-.2Z"/><path class="cls-20" d="m471.58,329.01h27.7c.11,0,.2.09.2.2,0,.11-.09.2-.2.2h-27.7c-.11,0-.2-.09-.2-.2s.09-.2.2-.2Z"/><path class="cls-20" d="m471.15,335.07h25.53c.11,0,.2.09.2.2,0,.11-.09.2-.2.2h-25.53c-.11,0-.2-.09-.2-.2,0-.11.09-.2.2-.2Z"/><rect class="cls-23" x="552.08" y="323.15" width="24.67" height="13.42"/><path class="cls-21" d="m510.78,303.67h-44.36c2.88,0,5.21,3.31,5.21,7.36h0c0,4.05-2.33,7.36-5.21,7.36h44.36c2.88,0,5.21-3.31,5.21-7.36h0c0-4.05-2.33-7.36-5.21-7.36Z"/><path class="cls-6" d="m583.05,303.24h-90.48c5.87,0,8.57,3.37,8.57,7.57h0c0,4.21-2.7,7.57-8.57,7.57h90.48c5.87,0,8.57-3.37,8.57-7.57h0c0-4.21-2.7-7.57-8.57-7.57Z"/><path class="cls-10" d="m465.52,303.48h27.04c5.49,0,8.77,2.82,8.77,7.55s-3.28,7.55-8.77,7.55h-27.04c-.11,0-.2-.09-.2-.2,0-.11.09-.2.2-.2h27.04c5.32,0,8.37-2.61,8.37-7.16,0-4.55-3.05-7.16-8.37-7.16h-27.04c-.11,0-.2-.09-.2-.2,0-.11.09-.2.2-.2Z"/><path class="cls-20" d="m469.85,305.64h23.8c.11,0,.2.09.2.2,0,.11-.09.2-.2.2h-23.8c-.11,0-.2-.09-.2-.2,0-.11.09-.2.2-.2Z"/><path class="cls-20" d="m471.15,308.24h23.8c.11,0,.2.09.2.2,0,.11-.09.2-.2.2h-23.8c-.11,0-.2-.09-.2-.2,0-.11.09-.2.2-.2Z"/><path class="cls-20" d="m471.58,309.97h27.7c.11,0,.2.09.2.2,0,.11-.09.2-.2.2h-27.7c-.11,0-.2-.09-.2-.2,0-.11.09-.2.2-.2Z"/><path class="cls-20" d="m471.15,313.86h25.53c.11,0,.2.09.2.2,0,.11-.09.2-.2.2h-25.53c-.11,0-.2-.09-.2-.2,0-.11.09-.2.2-.2Z"/><path class="cls-21" d="m519.18,86.86c8.24-12.31,17.3-22.73,25.92-30.32l.5,21.39,7.07-27.42c9.9-7,18.61-9.52,23.94-5.95,11.1,7.43,3.39,38.42-17.23,69.21-20.62,30.79-46.33,49.73-57.43,42.3-11.1-7.43-3.39-38.42,17.23-69.21Z"/><path class="cls-31" d="m490.83,52.96l11.51,12.36-8.68-18.69c12.16-25.53,29.31-41.93,40.25-37.52,12.08,4.87,12.02,33.25-.13,63.38-12.15,30.13-31.79,50.62-43.87,45.75-12.08-4.87-12.02-33.25.13-63.38.26-.64.52-1.27.78-1.9Z"/><path class="cls-31" d="m553.48,146.2l-11.93-3.38,15.12-.59c12.61-16.5,17.58-33.2,11.03-38.87-7.23-6.26-25.75,3.28-41.37,21.31-15.62,18.03-22.42,37.72-15.2,43.98,7.23,6.26,25.75-3.28,41.37-21.31.33-.38.66-.77.98-1.15Z"/><path class="cls-31" d="m468.98,230.59c.08,0,.16-.04.19-.12,22.72-60.4,48.79-104.53,66.65-130.91,19.35-28.58,33.51-43.07,33.65-43.21.07-.07.07-.19,0-.26-.07-.07-.19-.07-.26,0-.14.14-14.32,14.65-33.69,43.27-11.38,16.8-22.29,35.11-32.44,54.41-12.69,24.13-24.21,49.89-34.25,76.58-.04.1.01.2.11.24.01,0,.03,0,.05.01Z"/><path class="cls-30" d="m459.14,179.93c.07,0,.14-.03.18-.09,24.23-42,41.7-80.48,52.1-105.36,11.26-26.96,16.87-44.2,16.92-44.37.03-.1-.02-.2-.12-.23-.1-.03-.2.02-.23.12-.06.17-5.66,17.41-16.91,44.35-10.39,24.87-27.86,63.32-52.07,105.31-.05.09-.02.2.07.25.02.01.05.02.07.02Z"/><path class="cls-30" d="m474.7,231.97c.08,0,.16-.04.19-.12,14.83-37.38,35.77-67.13,50.73-85.51,16.83-20.66,29.81-31.79,30.56-32.06.1-.02.16-.12.14-.22-.02-.1-.12-.16-.22-.14-.63.13-13.51,11.03-30.59,31.97-15.03,18.43-36.08,48.28-50.96,85.82-.04.1,0,.2.1.24.02,0,.03.01.05.01Z"/><path class="cls-31" d="m478.76,69.12l-144.18.56c-8.73.03-14.77,6.82-13.46,15.13l44.27,280.73c1.31,8.31,9.48,15.04,18.21,15.01l144.18-.56c8.73-.03,14.77-6.82,13.46-15.13l-44.27-280.73c-1.31-8.31-9.48-15.04-18.21-15.01Z"/><path class="cls-37" d="m478.7,68.72l-144.18.56c-8.96.03-15.16,7-13.81,15.53l44.27,280.73c1.35,8.53,9.73,15.44,18.69,15.4l144.18-.56c8.96-.03,15.16-7,13.81-15.53l-44.27-280.73c-1.35-8.53-9.73-15.44-18.69-15.4Zm62.55,296.14c1.31,8.31-4.73,15.1-13.46,15.13l-144.18.56c-8.73.03-16.9-6.7-18.21-15.01l-44.27-280.73c-1.31-8.31,4.73-15.1,13.46-15.13l144.18-.56c8.73-.03,16.9,6.7,18.21,15.01l44.27,280.73Z"/><polygon class="cls-4" points="530.65 363.88 377.06 364.48 333.52 88.43 487.12 87.83 530.65 363.88"/><polygon class="cls-5" points="434.04 67.35 472.16 66.89 477.73 107.39 457.41 96.03 440.65 107.23 434.04 67.35"/><polygon class="cls-31" points="391.92 115.96 356.36 116.1 355.74 112.13 391.29 111.99 391.92 115.96"/><polygon class="cls-31" points="470.64 115.65 399.96 115.93 399.33 111.96 470.02 111.69 470.64 115.65"/><polygon class="cls-31" points="397.96 154.26 362.4 154.4 361.78 150.44 397.33 150.3 397.96 154.26"/><polygon class="cls-31" points="476.68 153.95 406 154.23 405.37 150.27 476.06 149.99 476.68 153.95"/><polygon class="cls-31" points="454.88 128.49 380.39 128.78 379.76 124.81 454.25 124.52 454.88 128.49"/><polygon class="cls-31" points="422.19 141.39 382.4 141.54 381.77 137.58 421.56 137.43 422.19 141.39"/><polygon class="cls-31" points="430.3 168.67 364.27 168.93 363.65 164.97 429.68 164.71 430.3 168.67"/><polygon class="cls-31" points="482.78 168.47 438.77 168.64 438.14 164.68 482.16 164.5 482.78 168.47"/><polygon class="cls-31" points="405.65 181.54 377.71 181.65 377.09 177.69 405.02 177.58 405.65 181.54"/><polygon class="cls-31" points="480.57 181.25 409.88 181.53 409.26 177.56 479.94 177.29 480.57 181.25"/><polygon class="cls-31" points="411.34 220.29 372.4 220.44 371.7 216.04 410.64 215.89 411.34 220.29"/><polygon class="cls-31" points="486.68 219.99 415.99 220.27 415.3 215.87 485.98 215.59 486.68 219.99"/><polygon class="cls-31" points="443.22 194.17 388.62 194.39 387.99 190.42 442.59 190.21 443.22 194.17"/><polygon class="cls-31" points="397.82 207.12 371.16 207.23 370.53 203.27 397.2 203.16 397.82 207.12"/><polygon class="cls-31" points="455.81 206.9 400.79 207.11 400.16 203.15 455.19 202.94 455.81 206.9"/><polygon class="cls-31" points="451.56 298.11 385.53 298.36 384.91 294.4 450.94 294.14 451.56 298.11"/><polygon class="cls-31" points="504.04 297.9 459.6 298.08 458.98 294.11 503.42 293.94 504.04 297.9"/><polygon class="cls-31" points="432.53 349.28 393.59 349.43 392.96 345.47 431.9 345.32 432.53 349.28"/><polygon class="cls-31" points="507.44 348.99 437.18 349.26 436.56 345.3 506.82 345.03 507.44 348.99"/><polygon class="cls-31" points="464.48 323.61 389.56 323.9 388.93 319.94 463.85 319.65 464.48 323.61"/><polygon class="cls-31" points="488.83 233.64 418.57 233.92 417.94 229.95 488.2 229.68 488.83 233.64"/><polygon class="cls-31" points="453.64 284.44 383.38 284.72 382.75 280.75 453.02 280.48 453.64 284.44"/><polygon class="cls-31" points="494.94 272.39 424.68 272.66 424.05 268.7 494.31 268.42 494.94 272.39"/><polygon class="cls-31" points="451.9 246.56 376.98 246.85 376.36 242.89 451.28 242.6 451.9 246.56"/><polygon class="cls-31" points="406.16 259.96 379.49 260.06 378.8 255.66 405.46 255.55 406.16 259.96"/><polygon class="cls-31" points="493.77 259.62 409.54 259.94 408.85 255.54 493.08 255.21 493.77 259.62"/><path class="cls-21" d="m656.95,362.73h-53.9c3.5,0,6.33,6.11,6.33,13.79h0c0,7.68-2.83,13.79-6.33,13.79h53.9c3.5,0,6.33-6.11,6.33-13.79h0c0-7.68-2.83-13.79-6.33-13.79Z"/><path class="cls-28" d="m744.76,362.24h-109.94c7.13,0,12.91,6.3,12.91,14.28h0c0,7.99-5.78,14.28-12.91,14.28h109.94c7.13,0,12.91-6.3,12.91-14.28h0c0-7.99-5.78-14.28-12.91-14.28Z"/><path class="cls-10" d="m634.82,390.54h-32.83c-.12,0-.22-.1-.22-.22s.1-.22.22-.22h32.83c7.23,0,12.69-5.83,12.69-13.57s-5.45-13.57-12.69-13.57h-32.83c-.12,0-.22-.1-.22-.22s.1-.22.22-.22h32.83c3.55,0,6.85,1.41,9.29,3.97,2.48,2.6,3.84,6.17,3.84,10.04s-1.36,7.45-3.84,10.04c-2.44,2.56-5.74,3.97-9.29,3.97Z"/><path class="cls-20" d="m635.98,366.4h-28.57c-.12,0-.22-.1-.22-.22s.1-.22.22-.22h28.57c.12,0,.22.1.22.22s-.1.22-.22.22Z"/><path class="cls-20" d="m637.45,372.31h-28.57c-.12,0-.22-.1-.22-.22s.1-.22.22-.22h28.57c.12,0,.22.1.22.22s-.1.22-.22.22Z"/><path class="cls-20" d="m642.87,375.76h-33.49c-.12,0-.22-.1-.22-.22s.1-.22.22-.22h33.49c.12,0,.22.1.22.22s-.1.22-.22.22Z"/><path class="cls-20" d="m639.92,382.66h-31.03c-.12,0-.22-.1-.22-.22s.1-.22.22-.22h31.03c.12,0,.22.1.22.22s-.1.22-.22.22Z"/><rect class="cls-16" x="718.23" y="368.15" width="29.55" height="16.25"/><rect class="cls-16" x="659.62" y="368.15" width="53.19" height="16.25"/><path class="cls-21" d="m656.95,344.26h-53.9c3.5,0,6.33,4.2,6.33,9.11h0c0,4.91-2.83,9.11-6.33,9.11h53.9c3.5,0,6.33-4.2,6.33-9.11h0c0-4.91-2.83-9.11-6.33-9.11Z"/><path class="cls-26" d="m744.76,343.79h-109.94c7.13,0,10.41,4.21,10.41,9.6h0c0,5.38-3.28,9.6-10.41,9.6h109.94c7.13,0,10.41-4.21,10.41-9.6h0c0-5.38-3.28-9.6-10.41-9.6Z"/><path class="cls-10" d="m634.82,362.71h-32.83c-.12,0-.22-.1-.22-.22s.1-.22.22-.22h32.83c6.38,0,10.19-3.32,10.19-8.89s-3.81-8.89-10.19-8.89h-32.83c-.12,0-.22-.1-.22-.22s.1-.22.22-.22h32.83c6.66,0,10.64,3.49,10.64,9.34s-3.98,9.34-10.64,9.34Z"/><path class="cls-20" d="m635.98,346.95h-28.57c-.12,0-.22-.1-.22-.22s.1-.22.22-.22h28.57c.12,0,.22.1.22.22s-.1.22-.22.22Z"/><path class="cls-20" d="m637.45,350.89h-28.57c-.12,0-.22-.1-.22-.22s.1-.22.22-.22h28.57c.12,0,.22.1.22.22s-.1.22-.22.22Z"/><path class="cls-20" d="m642.87,352.86h-33.49c-.12,0-.22-.1-.22-.22s.1-.22.22-.22h33.49c.12,0,.22.1.22.22s-.1.22-.22.22Z"/><path class="cls-20" d="m639.92,357.79h-31.03c-.12,0-.22-.1-.22-.22s.1-.22.22-.22h31.03c.12,0,.22.1.22.22s-.1.22-.22.22Z"/><path class="cls-21" d="m696.27,326.06h50.49c-3.27,0-5.93-5.86-5.93-13.05h0c0-7.19,2.65-13.05,5.93-13.05h-50.49c-3.27,0-5.93,5.86-5.93,13.05h0c0,7.19,2.65,13.05,5.93,13.05Z"/><path class="cls-5" d="m614.03,326.55h102.98c-6.68,0-12.09-6.06-12.09-13.54h0c0-7.48,5.41-13.54,12.09-13.54h-102.98c-6.68,0-12.09,6.06-12.09,13.54h0c0,7.48,5.41,13.54,12.09,13.54Z"/><path class="cls-10" d="m747.78,326.28h-30.78c-6.91,0-12.32-5.83-12.32-13.28s5.41-13.28,12.32-13.28h30.78c.12,0,.22.1.22.22s-.1.22-.22.22h-30.78c-6.66,0-11.87,5.63-11.87,12.83s5.21,12.83,11.87,12.83h30.78c.12,0,.22.1.22.22s-.1.22-.22.22Z"/><path class="cls-20" d="m742.85,322.83h-27.09c-.12,0-.22-.1-.22-.22s.1-.22.22-.22h27.09c.12,0,.22.1.22.22s-.1.22-.22.22Z"/><path class="cls-20" d="m741.38,317.41h-27.09c-.12,0-.22-.1-.22-.22s.1-.22.22-.22h27.09c.12,0,.22.1.22.22s-.1.22-.22.22Z"/><path class="cls-20" d="m740.88,314.46h-31.52c-.12,0-.22-.1-.22-.22s.1-.22.22-.22h31.52c.12,0,.22.1.22.22s-.1.22-.22.22Z"/><path class="cls-20" d="m741.38,307.56h-29.06c-.12,0-.22-.1-.22-.22s.1-.22.22-.22h29.06c.12,0,.22.1.22.22s-.1.22-.22.22Z"/><rect class="cls-23" x="621.2" y="305.86" width="28.07" height="15.27" transform="translate(1270.48 626.99) rotate(180)"/><path class="cls-21" d="m696.27,343.29h50.49c-3.27,0-5.93-3.77-5.93-8.37h0c0-4.6,2.65-8.37,5.93-8.37h-50.49c-3.27,0-5.93,3.77-5.93,8.37h0c0,4.6,2.65,8.37,5.93,8.37Z"/><path class="cls-6" d="m614.03,343.79h102.98c-6.68,0-9.75-3.83-9.75-8.62h0c0-4.79,3.07-8.62,9.75-8.62h-102.98c-6.68,0-9.75,3.83-9.75,8.62h0c0,4.79,3.07,8.62,9.75,8.62Z"/><path class="cls-10" d="m747.78,343.52h-30.78c-6.25,0-9.98-3.21-9.98-8.6s3.73-8.6,9.98-8.6h30.78c.12,0,.22.1.22.22s-.1.22-.22.22h-30.78c-6.06,0-9.53,2.97-9.53,8.15s3.47,8.15,9.53,8.15h30.78c.12,0,.22.1.22.22s-.1.22-.22.22Z"/><path class="cls-20" d="m742.85,341.06h-27.09c-.12,0-.22-.1-.22-.22s.1-.22.22-.22h27.09c.12,0,.22.1.22.22s-.1.22-.22.22Z"/><path class="cls-20" d="m741.38,338.1h-27.09c-.12,0-.22-.1-.22-.22s.1-.22.22-.22h27.09c.12,0,.22.1.22.22s-.1.22-.22.22Z"/><path class="cls-20" d="m740.88,336.13h-31.52c-.12,0-.22-.1-.22-.22s.1-.22.22-.22h31.52c.12,0,.22.1.22.22s-.1.22-.22.22Z"/><path class="cls-20" d="m741.38,331.7h-29.06c-.12,0-.22-.1-.22-.22s.1-.22.22-.22h29.06c.12,0,.22.1.22.22s-.1.22-.22.22Z"/><path class="cls-18" d="m796.36,325.97c5.06,28.69,4,52.86,4,52.86,0,0-9.26-22.35-14.32-51.04-5.06-28.69-4-52.86-4-52.86,0,0,9.26,22.35,14.32,51.04Z"/><path class="cls-18" d="m818.86,337.04c-8.64,27.82-20.66,48.82-20.66,48.82,0,0,2-24.11,10.64-51.93,8.64-27.82,20.66-48.82,20.66-48.82,0,0-2,24.11-10.64,51.93Z"/><path class="cls-18" d="m806.89,351.91s-.02,0-.03,0c-.1-.01-.18-.1-.19-.2-.02-.18-1.54-17.99,1.2-39.01,2.75-21.02,8.8-37.84,8.86-38.01.04-.1.13-.16.24-.15.1.01.18.1.19.2.02.18,1.54,17.99-1.2,39.01-2.75,21.02-8.8,37.84-8.86,38.01-.03.09-.12.15-.21.15Zm9.9-76.05c-1.34,3.94-6.13,18.87-8.48,36.9-2.35,18.03-1.56,33.69-1.28,37.84,1.34-3.94,6.13-18.87,8.48-36.9,2.35-18.03,1.56-33.68,1.28-37.84Zm-1.06,37.86h0,0Z"/><path class="cls-18" d="m797.36,366.86c-.1,0-.19-.07-.22-.16-.06-.23-6.48-23.67-7.97-52.45-1.49-28.78,2.47-52.76,2.51-53,.02-.1.1-.18.21-.19.11,0,.2.06.23.16.06.23,6.48,23.67,7.97,52.45s-2.47,52.76-2.51,53c-.02.1-.1.18-.21.19,0,0,0,0-.01,0Zm-5.39-104.49c-.74,4.93-3.65,26.52-2.34,51.85,1.31,25.33,6.44,46.5,7.68,51.33.74-4.93,3.65-26.52,2.34-51.85h0c-1.31-25.33-6.44-46.5-7.68-51.33Z"/><path class="cls-18" d="m807.77,335.76c-3.79,28.88-12.07,51.62-12.07,51.62,0,0-2.12-24.1,1.67-52.98,3.79-28.88,12.07-51.62,12.07-51.62,0,0,2.12,24.1-1.67,52.98Z"/><path class="cls-15" d="m782.33,344.02c-1.69,4.93-2.65,10.93-2.65,17.18,0,12.11,3.59,22.71,9.15,29.61h28.8c5.57-6.9,9.15-17.5,9.15-29.61,0-6.25-.96-12.25-2.65-17.18h-41.81Z"/></g><g class="cls-27"><rect class="cls-4" x="91.13" y="87.83" width="171.78" height="281.78" rx="9.56" ry="9.56"/><rect class="cls-3" x="103.19" y="109.93" width="147.67" height="147.67" rx="9.56" ry="9.56"/><path class="cls-35" d="m103.19,98.63c0-2.91,2.36-5.27,5.27-5.27h10.55c2.91,0,5.27,2.36,5.27,5.27s-2.36,5.27-5.27,5.27h-10.55c-2.91,0-5.27-2.36-5.27-5.27Z"/><path class="cls-35" d="m130.31,98.63c0-2.91,2.36-5.27,5.27-5.27h10.55c2.91,0,5.27,2.36,5.27,5.27s-2.36,5.27-5.27,5.27h-10.55c-2.91,0-5.27-2.36-5.27-5.27Z"/><path class="cls-35" d="m103.19,272.42c0-4.85,3.94-8.79,8.79-8.79h130.09c4.85,0,8.79,3.93,8.79,8.79s-3.94,8.79-8.79,8.79H111.98c-4.85,0-8.79-3.94-8.79-8.79Z"/><path class="cls-35" d="m103.19,292.51c0-2.91,2.36-5.27,5.27-5.27h2.51c2.91,0,5.27,2.36,5.27,5.27s-2.36,5.27-5.27,5.27h-2.51c-2.91,0-5.27-2.36-5.27-5.27Z"/><path class="cls-35" d="m120.77,292.51c0-2.91,2.36-5.27,5.27-5.27h42.69c2.91,0,5.27,2.36,5.27,5.27s-2.36,5.27-5.27,5.27h-42.69c-2.91,0-5.27-2.36-5.27-5.27Z"/><path class="cls-35" d="m103.19,307.08c0-2.91,2.36-5.27,5.27-5.27h2.51c2.91,0,5.27,2.36,5.27,5.27s-2.36,5.27-5.27,5.27h-2.51c-2.91,0-5.27-2.36-5.27-5.27Z"/><path class="cls-35" d="m120.77,307.08c0-2.91,2.36-5.27,5.27-5.27h27.63c2.91,0,5.27,2.36,5.27,5.27s-2.36,5.27-5.27,5.27h-27.63c-2.91,0-5.27-2.36-5.27-5.27Z"/><path class="cls-35" d="m103.19,321.64c0-2.91,2.36-5.27,5.27-5.27h2.51c2.91,0,5.27,2.36,5.27,5.27s-2.36,5.27-5.27,5.27h-2.51c-2.91,0-5.27-2.36-5.27-5.27Z"/><path class="cls-35" d="m120.77,321.64c0-2.91,2.36-5.27,5.27-5.27h27.63c2.91,0,5.27,2.36,5.27,5.27s-2.36,5.27-5.27,5.27h-27.63c-2.91,0-5.27-2.36-5.27-5.27Z"/><path class="cls-35" d="m103.19,330.93h147.67v.5H103.19v-.5Z"/><path class="cls-35" d="m103.19,339.98c0-2.5,2.02-4.52,4.52-4.52h29.13c2.5,0,4.52,2.02,4.52,4.52s-2.02,4.52-4.52,4.52h-29.13c-2.5,0-4.52-2.02-4.52-4.52Z"/><path class="cls-4" d="m91.13,350.52h85.89v19.09h-79.86c-3.33,0-6.03-2.7-6.03-6.03v-13.06Z"/><path class="cls-35" d="m107.71,360.07c0-2.5,2.02-4.52,4.52-4.52h43.7c2.5,0,4.52,2.02,4.52,4.52s-2.02,4.52-4.52,4.52h-43.7c-2.5,0-4.52-2.02-4.52-4.52Z"/><path class="cls-4" d="m177.02,350.52h85.89v13.06c0,3.33-2.7,6.03-6.03,6.03h-79.86v-19.09Z"/><path class="cls-35" d="m193.6,360.07c0-2.5,2.02-4.52,4.52-4.52h43.7c2.5,0,4.52,2.02,4.52,4.52s-2.02,4.52-4.52,4.52h-43.7c-2.5,0-4.52-2.02-4.52-4.52Z"/></g><path class="cls-5" d="m537.95,289.15l-22.46,16.55c-2.15,1.58-5.15-.11-4.92-2.76l2.47-27.79c.04-.44.17-.86.38-1.24l106.75-189.87c.84-1.49,2.72-2.02,4.21-1.18l19.99,11.24c1.49.84,2.02,2.72,1.18,4.21l-106.75,189.87c-.21.38-.51.71-.86.97Z"/><g class="cls-13"><ellipse class="cls-8" cx="516.42" cy="297.16" rx="25.71" ry="26.56" transform="translate(171.25 782.81) rotate(-84.52)"/></g><path class="cls-22" d="m683.12,196.06l-3.15-1.1c.25-1.63.37-3.27.37-4.89l3.28-.62-2.1-11.09-3.28.62c-.59-1.52-1.3-3-2.13-4.41l2.53-2.18-7.37-8.56-2.53,2.18c-1.26-1.02-2.62-1.94-4.05-2.76l1.1-3.15-10.66-3.73-1.1,3.15c-1.63-.25-3.27-.37-4.89-.37l-.62-3.28-11.09,2.1.62,3.28c-1.52.59-3,1.3-4.41,2.13l-2.18-2.53-8.56,7.37,2.18,2.53c-1.02,1.26-1.94,2.62-2.76,4.05l-3.15-1.1h0l-3.73,10.66,3.15,1.1c-.25,1.63-.37,3.27-.37,4.89l-3.28.62,2.1,11.09,3.28-.62c.59,1.52,1.3,3,2.13,4.41l-2.53,2.18,7.37,8.56h0l2.53-2.18c1.26,1.02,2.62,1.94,4.05,2.76l-1.1,3.15,10.66,3.73,1.1-3.15c1.63.25,3.27.37,4.89.37l.62,3.28h0s11.09-2.1,11.09-2.1l-.62-3.28c1.52-.59,3-1.3,4.41-2.13l2.18,2.53,8.56-7.37-2.18-2.53c1.02-1.26,1.94-2.62,2.76-4.05l3.15,1.1,3.73-10.66Zm-13.66,1.96c-4.08,10.58-15.83,16.24-26.65,12.85-11.94-3.75-18.22-16.78-13.72-28.45,4.08-10.58,15.83-16.24,26.65-12.85,11.94,3.75,18.22,16.78,13.72,28.45Z"/><path class="cls-31" d="m649.28,215.13c-2.74,0-5.52-.45-8.22-1.4-6.28-2.2-11.33-6.71-14.22-12.7-2.89-5.99-3.27-12.76-1.08-19.04,1.98-5.67,5.94-10.43,11.14-13.4,5.15-2.95,11.18-3.96,16.98-2.87.11.02.19.13.17.25-.02.11-.13.19-.25.17-11.79-2.23-23.68,4.64-27.65,15.99-2.16,6.18-1.78,12.82,1.06,18.72,2.84,5.89,7.81,10.33,13.98,12.49,10.53,3.68,22.22-.21,28.42-9.47.06-.1.2-.12.29-.06.1.06.12.2.06.29-4.72,7.04-12.56,11.04-20.69,11.04Z"/><path class="cls-32" d="m130.31,97.61c0-1.33,1.08-2.41,2.41-2.41h105.95c1.33,0,2.41,1.08,2.41,2.41v148.09c0,1.33-1.08,2.41-2.41,2.41h-105.95c-1.33,0-2.41-1.08-2.41-2.41V97.61Z"/><path class="cls-4" d="m161.03,134.65c-4.35,1.89-9.79.56-13.01-2.86s-4.51-8.84-2.3-12.96c1.2-2.24,4.19-3.1,6.43-3.85s5.18-1.45,7.43-.22c1.84,1.01,2.54,3.02,3.28,4.85s1.6,3.82,3.23,5.11c2.12,1.7,5.18,1.39,7.41.08,2.61-1.53,4.19-4.31,5.51-6.93l-1.27.37c2.05,2.69,4.94,4.58,8.27,5.26,1.83.38,3.07-.17,3.57-2.07s.39-4.11.5-6.09l-1.01,1.75c3.08.71,6.15,1.42,9.23,2.13,1.5.35,3,.69,4.49,1.04,1.34.31,2.74.54,3.94,1.26,2.08,1.24,2.5,3.86,3.34,5.94s2.03,3.73,3.67,5.13c3.08,2.65,7.61,3.86,11.57,2.83,2.17-.56,4.33-1.7,5.61-3.6,1.44-2.15,1.69-4.94,1.09-7.42s-2.21-4.7-4.66-5.55c-2.61-.9-5.45-.32-7.69,1.23-1.23.85-.62,5.42.56,4.6,1.79-1.24,3.98-1.83,6.13-1.34,1.52.34,3.55,1.64,3.81,3.34.22,1.4-1.92,2.69-2.97,3.22-1.68.86-3.56,1.18-5.43,1.08-3.57-.19-7.12-1.96-9.18-4.92-2.23-3.21-2.05-7.93-6.2-9.61-2.61-1.05-5.58-1.44-8.32-2.07-3-.69-5.99-1.38-8.99-2.08-.66-.15-.99,1.4-1.01,1.75-.09,1.52-.01,3.17-.28,4.67-.1.57,0,.07-.07.09-.33.07-.62.06-.95.02-.64-.07-1.29-.23-1.9-.43-2.41-.78-4.52-2.3-6.05-4.31-.49-.64-1.01-.16-1.27.37-1.31,2.6-3.02,5.38-5.95,6.33-2.48.8-4.9-.03-6.19-2.29-1.11-1.95-1.6-4.18-2.84-6.07-1.42-2.16-3.68-3.24-6.25-3.13s-5.42,1.14-7.82,2.23c-2.9,1.31-4.42,3.58-5.19,6.62-1.4,5.55-.69,12.06,2.83,16.71s10.03,6.73,15.48,4.36c1.3-.57.93-5.25-.56-4.6h0Z"/><path class="cls-4" d="m154.6,144.31c-4.37,6.4-8.35,13.06-11.95,19.92-.38.73-.37,1.83-.22,2.61.07.34.36,1.6.96,1.47,13.43-3.1,24.09-12.13,35.15-19.8,3.2-2.22,6.48-4.34,9.9-6.22l-1.29-2.94c-.83,7.02-4.09,13.49-8.99,18.56-.7.73-.68,5.14.81,4.36,4.97-2.58,9.95-5.15,14.92-7.73l-1.19-1.1c.25,1.28.49,2.55.74,3.83.09.47.54,1.47,1.19,1.1,3.64-2.1,7.44-3.9,11.37-5.39l-1.02-.61c.92,1.66,1.7,3.39,2.27,5.19.09.28.4,1.33.91,1.18,6.13-1.75,12.4-2.88,18.76-3.36,1.53-.12,1.42-4.88,0-4.77-6.35.49-12.63,1.61-18.76,3.36l.91,1.18c-.68-2.14-1.51-4.19-2.6-6.16-.24-.44-.48-.82-1.02-.61-3.93,1.49-7.73,3.28-11.37,5.39l1.19,1.1c-.25-1.28-.49-2.55-.74-3.83-.1-.5-.53-1.44-1.19-1.1-4.97,2.58-9.95,5.15-14.92,7.73l.81,4.36c5.61-5.8,9.01-13.42,9.96-21.41.06-.54-.03-3.63-1.29-2.94-11.81,6.48-21.71,15.99-33.82,21.96-3.41,1.68-6.97,3.03-10.67,3.89l.74,4.08c3.46-6.61,7.32-13.01,11.52-19.17.61-.9.65-2.24.38-3.27-.15-.57-.81-1.77-1.44-.86h0Z"/><rect class="cls-4" x="140.64" y="181.75" width="90.1" height="52.75" rx="3.09" ry="3.09"/></g></g></svg>